<?xml version="1.0" standalone="no"?>
<!DOCTYPE svg PUBLIC "-//W3C//DTD SVG 20010904//EN"
 "http://www.w3.org/TR/2001/REC-SVG-20010904/DTD/svg10.dtd">
<svg version="1.0" xmlns="http://www.w3.org/2000/svg"
 width="512.000000pt" height="512.000000pt" viewBox="0 0 512.000000 512.000000"
 preserveAspectRatio="xMidYMid meet">

<g transform="translate(0.000000,512.000000) scale(0.100000,-0.100000)"
fill="#000000" stroke="none">
<path d="M1008 5074 c-154 -37 -283 -155 -328 -301 -20 -64 -20 -90 -20 -2214
0 -2150 0 -2150 21 -2211 22 -67 71 -148 116 -190 51 -48 144 -97 217 -113 63
-14 237 -15 1576 -13 l1505 3 56 21 c125 48 208 124 266 242 l38 76 0 2185 0
2186 -36 76 c-65 135 -190 232 -333 258 -41 8 -520 11 -1540 10 -1229 -1
-1491 -3 -1538 -15z m3069 -245 c40 -15 92 -67 114 -114 18 -39 19 -116 19
-2145 0 -1454 -3 -2117 -11 -2143 -6 -21 -26 -56 -45 -77 -69 -76 70 -70
-1601 -70 l-1499 0 -46 29 c-32 20 -53 44 -72 82 l-26 53 0 2116 0 2116 26 53
c19 38 40 62 72 82 l46 29 1497 0 c1032 0 1506 -3 1526 -11z"/>
<path d="M2409 4407 c-105 -44 -159 -100 -194 -202 -20 -60 -23 -189 -5 -266
18 -81 83 -209 135 -267 155 -173 367 -119 486 123 55 114 72 190 67 300 -6
110 -37 183 -104 245 -69 63 -122 83 -234 87 -82 3 -103 0 -151 -20z"/>
<path d="M2140 3418 c-237 -50 -310 -108 -310 -245 0 -32 -7 -141 -15 -243
l-15 -184 23 -24 c37 -40 147 -118 227 -160 154 -83 315 -122 505 -122 193 0
357 40 514 126 74 41 184 119 220 158 l24 26 -17 252 c-17 245 -18 254 -44
292 -34 50 -90 78 -222 112 -91 23 -105 25 -114 12 -6 -9 -60 -178 -121 -377
-71 -233 -112 -354 -116 -342 -4 10 -11 100 -15 201 l-7 183 -43 53 -44 53 50
51 c28 28 50 60 50 71 0 32 -71 102 -105 102 -33 0 -105 -69 -105 -102 0 -10
21 -42 46 -70 l46 -51 -36 -44 c-47 -57 -56 -84 -56 -160 0 -115 -13 -307 -20
-299 -4 4 -56 168 -114 363 -59 195 -109 361 -111 368 -5 14 -12 14 -75 0z"/>
<path d="M1432 2045 c-34 -15 -62 -63 -62 -107 0 -42 36 -86 79 -98 27 -7 381
-10 1133 -8 1229 3 1135 -3 1159 78 17 55 -4 109 -51 132 -33 17 -107 18
-1130 18 -926 -1 -1100 -3 -1128 -15z"/>
<path d="M1509 1530 c-95 -6 -112 -14 -130 -67 -16 -51 2 -108 44 -133 31 -19
59 -20 1137 -20 1072 0 1106 1 1136 19 43 26 61 79 45 132 -23 77 61 72 -1104
73 -573 0 -1081 -1 -1128 -4z"/>
<path d="M1408 991 c-29 -26 -33 -35 -33 -81 0 -46 4 -55 33 -81 l32 -29 1120
0 1120 0 32 29 c29 26 33 35 33 81 0 46 -4 55 -33 81 l-32 29 -1120 0 -1120 0
-32 -29z"/>
</g>
</svg>
